<svg width="24" height="24" viewBox="0 0 24 24" fill="none" xmlns="http://www.w3.org/2000/svg">
<path d="M19 13.7204C19 17.6702 15.8576 20.8566 12 20.8566C8.14245 20.8566 5 17.6702 5 13.7204C5 12.7754 5.36984 11.5549 5.98538 10.2186C6.59545 8.89424 7.42357 7.50527 8.28797 6.23891C9.15216 4.97285 10.0446 3.84107 10.7772 3.03069C11.1445 2.62432 11.4637 2.30768 11.7133 2.09683C11.8355 1.99363 11.931 1.92428 12 1.88277C12.069 1.92428 12.1645 1.99363 12.2867 2.09683C12.5363 2.30768 12.8555 2.62432 13.2228 3.03069C13.9554 3.84107 14.8478 4.97285 15.712 6.23891C16.5764 7.50527 17.4046 8.89424 18.0146 10.2186C18.6302 11.5549 19 12.7754 19 13.7204Z" stroke="#3a7412"/>
<path d="M8.01685 14.3189C8.34731 17.3207 9.26444 18.156 12 18.3744" stroke="#3a7412" stroke-linecap="round"/>
</svg>
