<svg width="16" height="21" viewBox="0 0 16 21" fill="none" xmlns="http://www.w3.org/2000/svg">
<path d="M14.75 12.7204C14.75 16.5363 11.7153 19.6066 8 19.6066C4.28474 19.6066 1.25 16.5363 1.25 12.7204C1.25 11.83 1.60164 10.6492 2.21245 9.3232C2.81504 8.01505 3.63536 6.63844 4.49445 5.37985C5.35324 4.12171 6.23872 2.9991 6.96261 2.19834C7.32616 1.79619 7.63696 1.48858 7.87462 1.28781C7.92166 1.24807 7.96343 1.21458 8 1.18666C8.03657 1.21458 8.07834 1.24807 8.12538 1.28781C8.36304 1.48858 8.67384 1.79619 9.03739 2.19834C9.76128 2.9991 10.6468 4.12171 11.5055 5.37985C12.3646 6.63844 13.185 8.01505 13.7875 9.3232C14.3984 10.6492 14.75 11.83 14.75 12.7204ZM8.16806 1.07614C8.16796 1.07642 8.16412 1.0784 8.15684 1.08122C8.16452 1.07727 8.16816 1.07586 8.16806 1.07614ZM7.84316 1.08122C7.83588 1.0784 7.83204 1.07642 7.83194 1.07614C7.83184 1.07586 7.83549 1.07727 7.84316 1.08122Z" stroke="#3A7412" stroke-width="1.5"/>
<path d="M4.01685 13.3189C4.34731 16.3207 5.26444 17.156 7.99999 17.3744" stroke="#3A7412" stroke-width="1.5" stroke-linecap="round"/>
</svg>
