<svg width="26" height="24" viewBox="0 0 26 24" fill="none" xmlns="http://www.w3.org/2000/svg">
<mask id="path-1-inside-1_3_2" fill="white">
<path d="M24.4882 13.3611C23.3227 17.7023 21.0137 21.4533 16.7277 21.4533C12.4416 21.4533 8.96713 17.8303 8.96713 13.3611C8.96713 8.89183 12.4416 5.26879 16.7277 5.26879C24.4882 5.26879 24.1658 0.832058 25.5702 2.29647C26.9745 3.76088 24.4882 13.3611 24.4882 13.3611Z"/>
</mask>
<path d="M24.4882 13.3611L25.454 13.6203L25.4562 13.6118L24.4882 13.3611ZM16.7277 5.26879L16.7277 6.26879L16.7277 5.26879ZM25.5702 2.29647L26.2919 1.60431L25.5702 2.29647ZM23.5224 13.1018C22.9591 15.1999 22.1409 17.0646 21.0163 18.3874C19.9168 19.6806 18.5329 20.4533 16.7277 20.4533V22.4533C19.2084 22.4533 21.1221 21.3506 22.54 19.6829C23.9327 18.0449 24.8518 15.8635 25.454 13.6203L23.5224 13.1018ZM16.7277 20.4533C13.033 20.4533 9.96713 17.3179 9.96713 13.3611H7.96713C7.96713 18.3427 11.8503 22.4533 16.7277 22.4533V20.4533ZM9.96713 13.3611C9.96713 9.40425 13.033 6.26879 16.7277 6.26879L16.7277 4.26879C11.8503 4.26879 7.96713 8.37941 7.96713 13.3611H9.96713ZM16.7277 6.26879C20.835 6.26879 22.9313 5.08143 24.1887 3.98807C24.4874 3.7283 24.7288 3.48256 24.913 3.29602C25.1184 3.08793 25.2117 2.99827 25.2759 2.9516C25.3257 2.91533 25.1984 3.02511 24.9727 2.99491C24.7801 2.96914 24.7316 2.86677 24.8484 2.98863L26.2919 1.60431C26.0577 1.36007 25.712 1.07601 25.2379 1.01257C24.7307 0.944707 24.3376 1.16085 24.0989 1.33459C23.8745 1.49793 23.6566 1.72192 23.4899 1.89076C23.3019 2.08114 23.1101 2.27558 22.8763 2.47888C22.0036 3.23778 20.3808 4.26879 16.7277 4.26879L16.7277 6.26879ZM24.8484 2.98863C24.8091 2.94766 24.8829 3.00749 24.9402 3.3551C24.9917 3.66742 25.0109 4.09026 24.9941 4.61093C24.9607 5.64828 24.7906 6.93263 24.5704 8.20776C24.3514 9.47573 24.0887 10.7028 23.8799 11.6151C23.7757 12.0706 23.6853 12.446 23.6212 12.7069C23.5891 12.8374 23.5636 12.9391 23.5463 13.0078C23.5376 13.0421 23.5309 13.0682 23.5265 13.0855C23.5243 13.0941 23.5226 13.1005 23.5216 13.1047C23.521 13.1068 23.5206 13.1083 23.5204 13.1093C23.5203 13.1097 23.5202 13.11 23.5201 13.1102C23.5201 13.1103 23.5201 13.1103 23.5201 13.1104C23.5201 13.1104 23.5201 13.1103 24.4882 13.3611C25.4562 13.6118 25.4563 13.6117 25.4563 13.6115C25.4563 13.6114 25.4564 13.6112 25.4564 13.611C25.4565 13.6106 25.4567 13.6101 25.4569 13.6094C25.4572 13.608 25.4577 13.606 25.4584 13.6035C25.4597 13.5984 25.4616 13.591 25.464 13.5815C25.4689 13.5623 25.4761 13.5343 25.4853 13.498C25.5036 13.4253 25.5302 13.3194 25.5634 13.1844C25.6297 12.9146 25.7226 12.5286 25.8295 12.0612C26.0431 11.1277 26.3141 9.8632 26.5412 8.54808C26.7671 7.2401 26.9552 5.84984 26.9931 4.67529C27.0119 4.09001 26.9949 3.52258 26.9135 3.0296C26.838 2.5719 26.6823 2.01138 26.2919 1.60431L24.8484 2.98863Z" fill="#3a7412" mask="url(#path-1-inside-1_3_2)"/>
<path d="M16.8123 12.1661C11.5337 14.0477 9.27863 15.9674 7.38159 22" stroke="#3a7412" stroke-linecap="round"/>
</svg>
