<svg width="24" height="24" viewBox="0 0 24 24" fill="none" xmlns="http://www.w3.org/2000/svg">
<path d="M6.05928 7.311C6.05928 10.2249 6.01196 14.8554 6.00188 20.0995C5.99986 21.1488 6.85066 22 7.9 22H16.0749C17.1242 22 17.9749 21.1493 17.9749 20.1V7.311" stroke="#3a7412" stroke-linecap="round" stroke-linejoin="round"/>
<line x1="6.81717" y1="4.10425" x2="17.1813" y2="4.10425" stroke="#3a7412" stroke-linecap="round"/>
<line x1="6.81717" y1="2.16817" x2="17.1813" y2="2.16817" stroke="#3a7412" stroke-linecap="round"/>
<path d="M16.5615 4.58483C16.5861 5.5203 17.9625 6.75722 17.9773 7.31962" stroke="#3a7412" stroke-linecap="round"/>
<path d="M7.47872 4.58224C7.45408 5.51771 6.07774 6.75462 6.06292 7.31703" stroke="#3a7412" stroke-linecap="round"/>
<line x1="17.2089" y1="2.19531" x2="17.2089" y2="4.10425" stroke="#3a7412" stroke-linecap="round"/>
<line x1="6.81717" y1="2.19531" x2="6.81717" y2="4.10425" stroke="#3a7412" stroke-linecap="round"/>
<line x1="16.3935" y1="13.7927" x2="16.3935" y2="19.1755" stroke="#3a7412" stroke-linecap="round"/>
<path d="M16.3792 19.2689C16.0304 20.0887 15.6513 20.4046 15 20.6765" stroke="#3a7412" stroke-linecap="round"/>
</svg>
