<svg width="76" height="151" viewBox="0 0 76 151" fill="none" xmlns="http://www.w3.org/2000/svg">
<rect x="0.873047" y="0.671417" width="75" height="150" fill="#D9D9D9"/>
<path d="M22.0527 90.2901L17.689 82.7321L20.2428 81.2576C20.8358 80.9153 21.3822 80.7425 21.8822 80.7392C22.3833 80.7321 22.8292 80.8568 23.2201 81.1133C23.611 81.3699 23.935 81.7208 24.1921 82.1661C24.4492 82.6114 24.5918 83.0687 24.62 83.5379C24.6506 84.0057 24.5402 84.4566 24.2888 84.8904C24.0359 85.3218 23.6155 85.7072 23.0275 86.0467L21.197 87.1035L20.7283 86.2916L22.5292 85.2519C22.9352 85.0175 23.2207 84.7592 23.3857 84.4769C23.5508 84.1946 23.6198 83.9022 23.5927 83.5996C23.5667 83.2931 23.4663 82.9886 23.2916 82.686C23.1169 82.3834 22.904 82.1454 22.6531 81.9721C22.4046 81.7974 22.117 81.7141 21.7904 81.7222C21.4624 81.7279 21.0929 81.8494 20.6821 82.0866L19.073 83.0156L22.9679 89.7617L22.0527 90.2901ZM28.5313 86.5497L25.2585 80.8812L26.1 80.3954L26.5943 81.2516L26.6533 81.2175C26.5947 80.8773 26.6503 80.5418 26.8201 80.2109C26.9899 79.8799 27.2445 79.6165 27.5841 79.4204C27.648 79.3835 27.7287 79.3386 27.8261 79.2856C27.9234 79.2327 27.9981 79.1945 28.0502 79.171L28.5616 80.0567C28.5278 80.0664 28.4537 80.0944 28.3394 80.1407C28.2261 80.1831 28.1117 80.2377 27.996 80.3045C27.7205 80.4636 27.5078 80.6634 27.3581 80.9041C27.2094 81.1408 27.1305 81.3963 27.1215 81.6705C27.1136 81.9408 27.1835 82.2039 27.3312 82.4597L29.4022 86.0469L28.5313 86.5497ZM34.5964 83.2054C34.0847 83.5009 33.5654 83.6383 33.0385 83.6178C32.514 83.5958 32.0172 83.4284 31.5478 83.1154C31.0809 82.8011 30.6784 82.3511 30.3404 81.7656C29.9995 81.1751 29.8089 80.5979 29.7687 80.0339C29.7309 79.4685 29.8336 78.9532 30.0768 78.4881C30.3225 78.0215 30.7012 77.6405 31.2129 77.345C31.7246 77.0496 32.2427 76.9128 32.7672 76.9348C33.2941 76.9554 33.7917 77.124 34.26 77.4409C34.7307 77.7562 35.1366 78.2092 35.4775 78.7997C35.8155 79.3852 36.0027 79.9594 36.0391 80.5224C36.0779 81.0839 35.9745 81.5979 35.7288 82.0645C35.4856 82.5297 35.1082 82.91 34.5964 83.2054ZM34.1447 82.4231C34.5335 82.1986 34.7958 81.9143 34.9317 81.5702C35.0675 81.226 35.102 80.8567 35.0351 80.4624C34.9681 80.068 34.8253 79.6814 34.6065 79.3025C34.3878 78.9236 34.1237 78.6054 33.8142 78.3477C33.5047 78.0901 33.1663 77.9329 32.7988 77.876C32.4314 77.8192 32.0533 77.903 31.6646 78.1274C31.2759 78.3518 31.0143 78.6373 30.8798 78.984C30.7453 79.3306 30.7123 79.7023 30.7806 80.0992C30.849 80.496 30.9926 80.8838 31.2113 81.2627C31.4301 81.6416 31.6935 81.9586 32.0015 82.2138C32.3096 82.4689 32.6466 82.6237 33.0126 82.6781C33.3786 82.7325 33.756 82.6475 34.1447 82.4231ZM40.6349 79.7191C40.1625 79.9918 39.6766 80.1133 39.1772 80.0834C38.6763 80.0511 38.1974 79.875 37.7403 79.5549C37.2818 79.2324 36.8793 78.771 36.5327 78.1707C36.189 77.5753 35.9928 76.9997 35.9442 76.4439C35.8955 75.8881 35.9844 75.3857 36.2107 74.9368C36.437 74.488 36.7889 74.1257 37.2662 73.8502C37.6352 73.6371 37.9623 73.5303 38.2473 73.5297C38.5334 73.5253 38.7778 73.5679 38.9805 73.6575C39.1842 73.7433 39.3464 73.8169 39.4672 73.8784L39.541 73.8358L37.9302 71.0458L38.8012 70.543L43.1648 78.101L42.3234 78.5868L41.8206 77.7159L41.7172 77.7755C41.7129 77.9158 41.6972 78.0987 41.67 78.3244C41.6414 78.5476 41.5531 78.7839 41.4052 79.0333C41.2558 79.2803 40.999 79.5089 40.6349 79.7191ZM40.3013 78.8686C40.6507 78.6669 40.8934 78.4054 41.0294 78.0841C41.1639 77.7604 41.2002 77.3999 41.1382 77.0027C41.0747 76.603 40.9194 76.1892 40.6723 75.7611C40.428 75.3379 40.1527 75.0031 39.8464 74.7568C39.5387 74.508 39.2132 74.3646 38.8698 74.3267C38.525 74.2863 38.1755 74.3683 37.8212 74.5729C37.4522 74.7859 37.1993 75.0582 37.0627 75.3897C36.927 75.7173 36.8908 76.0778 36.9538 76.4711C37.0179 76.8605 37.165 77.2546 37.3952 77.6531C37.6281 78.0566 37.9013 78.3877 38.2146 78.6463C38.529 78.9011 38.8641 79.0554 39.2199 79.1091C39.5767 79.159 39.9372 79.0788 40.3013 78.8686ZM47.1152 72.7302L45.1805 69.3792L46.0515 68.8764L49.3242 74.5449L48.4532 75.0478L47.8993 74.0882L47.8402 74.1223C47.8735 74.4869 47.8082 74.851 47.6442 75.2147C47.4788 75.5759 47.182 75.8801 46.754 76.1272C46.3997 76.3318 46.04 76.4361 45.675 76.4402C45.3085 76.4418 44.9556 76.3306 44.6164 76.1066C44.2757 75.8802 43.9661 75.5258 43.6877 75.0436L41.6082 71.4417L42.4791 70.9389L44.5246 74.4817C44.7632 74.895 45.0692 75.158 45.4425 75.2705C45.8183 75.3816 46.187 75.3327 46.5486 75.1239C46.7651 74.9989 46.9534 74.8164 47.1133 74.5764C47.2758 74.335 47.3672 74.0559 47.3876 73.739C47.4105 73.4207 47.3197 73.0844 47.1152 72.7302ZM53.2904 72.4125C52.759 72.7193 52.2289 72.858 51.7002 72.8287C51.1715 72.7993 50.6767 72.6241 50.2158 72.303C49.7549 71.9819 49.361 71.5385 49.0343 70.9726C48.702 70.3969 48.5144 69.8278 48.4718 69.2652C48.4301 68.6988 48.5282 68.1812 48.7661 67.7126C49.005 67.24 49.3804 66.856 49.8921 66.5606C50.2907 66.3305 50.6925 66.1969 51.0976 66.1598C51.5026 66.1228 51.884 66.1782 52.2416 66.326C52.5992 66.4738 52.9049 66.7107 53.1586 67.0365L52.2877 67.5394C52.0721 67.3194 51.7924 67.1758 51.4485 67.1086C51.1057 67.0376 50.7424 67.1128 50.3586 67.3344C50.0191 67.5304 49.7725 67.7909 49.6189 68.1158C49.4663 68.4367 49.411 68.7983 49.453 69.2006C49.496 69.5989 49.6411 70.0121 49.8882 70.4402C50.1411 70.8782 50.4301 71.2197 50.7554 71.465C51.0832 71.7087 51.4256 71.8473 51.7827 71.8806C52.1422 71.9125 52.4943 71.829 52.8387 71.6301C53.065 71.4994 53.2477 71.3414 53.3868 71.1562C53.5259 70.9709 53.6168 70.7675 53.6595 70.5461C53.7022 70.3246 53.6909 70.0949 53.6258 69.857L54.4967 69.3541C54.6407 69.7171 54.6929 70.0888 54.6534 70.4692C54.6149 70.8457 54.4824 71.2043 54.2559 71.545C54.0305 71.8819 53.7086 72.171 53.2904 72.4125ZM55.9169 63.1805L56.3431 63.9186L53.4055 65.6147L52.9793 64.8766L55.9169 63.1805ZM53.0514 63.0242L53.9224 62.5213L57.0417 67.9241C57.1838 68.1702 57.326 68.3341 57.4683 68.4159C57.6117 68.4939 57.7521 68.5211 57.8894 68.4975C58.0278 68.4702 58.1609 68.4195 58.2889 68.3457C58.3848 68.2903 58.4607 68.2399 58.5165 68.1945C58.5709 68.1467 58.6145 68.1085 58.6471 68.0798L59.276 68.7599C59.2297 68.8161 59.1601 68.8858 59.0671 68.9691C58.9755 69.0548 58.8485 69.1445 58.6861 69.2382C58.4401 69.3803 58.1684 69.4666 57.8712 69.4971C57.5763 69.5263 57.2889 69.4774 57.0089 69.3503C56.7314 69.2219 56.4975 68.9928 56.3071 68.6632L53.0514 63.0242Z" fill="black"/>
</svg>
