<svg width="54" height="46" viewBox="0 0 54 46" fill="none" xmlns="http://www.w3.org/2000/svg">
<rect x="0.873047" y="0.671417" width="52.6691" height="45" fill="#D9D9D9"/>
<path d="M16.1153 25.1274V24.6203L18.3525 21.0805H18.7204V21.866H18.4718L16.7815 24.5407V24.5805H19.7943V25.1274H16.1153ZM18.5116 26.1714V24.9733V24.7371V21.0805H19.0983V26.1714H18.5116ZM22.3168 26.241C22.0251 26.241 21.7624 26.183 21.5288 26.067C21.2951 25.951 21.1078 25.7919 20.967 25.5897C20.8261 25.3876 20.749 25.1572 20.7358 24.8987H21.3324C21.3556 25.129 21.46 25.3196 21.6456 25.4704C21.8328 25.6196 22.0566 25.6941 22.3168 25.6941C22.5256 25.6941 22.7112 25.6453 22.8736 25.5475C23.0376 25.4497 23.1661 25.3155 23.2589 25.1448C23.3533 24.9724 23.4006 24.7777 23.4006 24.5606C23.4006 24.3386 23.3517 24.1405 23.2539 23.9665C23.1578 23.7909 23.0252 23.6525 22.8562 23.5514C22.6871 23.4503 22.4941 23.3989 22.277 23.3973C22.1212 23.3956 21.9613 23.4196 21.7972 23.4694C21.6332 23.5174 21.4981 23.5796 21.392 23.6558L20.8153 23.5862L21.1236 21.0805H23.7685V21.6274H21.6406L21.4616 23.1288H21.4915C21.5959 23.0459 21.7268 22.9772 21.8842 22.9225C22.0417 22.8678 22.2057 22.8405 22.3764 22.8405C22.688 22.8405 22.9655 22.915 23.2092 23.0642C23.4544 23.2117 23.6467 23.4138 23.7859 23.6707C23.9267 23.9276 23.9971 24.2209 23.9971 24.5507C23.9971 24.8755 23.9242 25.1655 23.7784 25.4207C23.6342 25.6743 23.4354 25.8748 23.1818 26.0223C22.9283 26.1681 22.6399 26.241 22.3168 26.241ZM27.9775 25.2566L25.1736 22.4527L25.5514 22.0748L28.3554 24.8788L27.9775 25.2566ZM25.5514 25.2566L25.1736 24.8788L27.9775 22.0748L28.3554 22.4527L25.5514 25.2566ZM29.4796 25.1274V24.6203L31.7168 21.0805H32.0847V21.866H31.8361L30.1458 24.5407V24.5805H33.1585V25.1274H29.4796ZM31.8759 26.1714V24.9733V24.7371V21.0805H32.4625V26.1714H31.8759ZM35.681 26.241C35.3893 26.241 35.1267 26.183 34.893 26.067C34.6593 25.951 34.4721 25.7919 34.3312 25.5897C34.1904 25.3876 34.1133 25.1572 34.1 24.8987H34.6966C34.7198 25.129 34.8242 25.3196 35.0098 25.4704C35.1971 25.6196 35.4208 25.6941 35.681 25.6941C35.8898 25.6941 36.0754 25.6453 36.2378 25.5475C36.4019 25.4497 36.5303 25.3155 36.6231 25.1448C36.7176 24.9724 36.7648 24.7777 36.7648 24.5606C36.7648 24.3386 36.7159 24.1405 36.6182 23.9665C36.522 23.7909 36.3895 23.6525 36.2204 23.5514C36.0514 23.4503 35.8583 23.3989 35.6412 23.3973C35.4855 23.3956 35.3255 23.4196 35.1615 23.4694C34.9974 23.5174 34.8624 23.5796 34.7563 23.6558L34.1796 23.5862L34.4878 21.0805H37.1327V21.6274H35.0049L34.8259 23.1288H34.8557C34.9601 23.0459 35.091 22.9772 35.2485 22.9225C35.4059 22.8678 35.57 22.8405 35.7407 22.8405C36.0522 22.8405 36.3298 22.915 36.5734 23.0642C36.8187 23.2117 37.0109 23.4138 37.1501 23.6707C37.291 23.9276 37.3614 24.2209 37.3614 24.5507C37.3614 24.8755 37.2885 25.1655 37.1427 25.4207C36.9985 25.6743 36.7996 25.8748 36.5461 26.0223C36.2925 26.1681 36.0042 26.241 35.681 26.241Z" fill="black"/>
</svg>
